<svg width="654" height="201" viewBox="0 0 654 201" fill="none" xmlns="http://www.w3.org/2000/svg">
<path d="M237.311 123.519C233.851 123.519 230.629 122.935 227.645 121.767C224.704 120.6 222.153 118.978 219.99 116.902C217.828 114.783 216.141 112.318 214.93 109.507C213.719 106.696 213.114 103.625 213.114 100.295C213.114 96.9651 213.719 93.8946 214.93 91.0835C216.141 88.2724 217.828 85.829 219.99 83.7531C222.153 81.634 224.704 79.9906 227.645 78.8229C230.586 77.6552 233.808 77.0714 237.311 77.0714C240.77 77.0714 243.949 77.6552 246.847 78.8229C249.788 79.9473 252.339 81.5691 254.501 83.6882C256.707 85.7641 258.394 88.2076 259.561 91.0186C260.772 93.8297 261.378 96.9219 261.378 100.295C261.378 103.668 260.772 106.761 259.561 109.572C258.394 112.383 256.707 114.848 254.501 116.967C252.339 119.043 249.788 120.665 246.847 121.832C243.949 122.957 240.77 123.519 237.311 123.519ZM237.311 117.745C239.819 117.745 242.133 117.313 244.252 116.448C246.414 115.583 248.274 114.372 249.831 112.815C251.431 111.215 252.663 109.355 253.528 107.236C254.437 105.117 254.891 102.804 254.891 100.295C254.891 97.7868 254.437 95.4731 253.528 93.354C252.663 91.2349 251.431 89.3969 249.831 87.84C248.274 86.2398 246.414 85.0073 244.252 84.1423C242.133 83.2774 239.819 82.8449 237.311 82.8449C234.759 82.8449 232.402 83.2774 230.24 84.1423C228.121 85.0073 226.261 86.2398 224.661 87.84C223.061 89.3969 221.807 91.2349 220.898 93.354C220.033 95.4731 219.601 97.7868 219.601 100.295C219.601 102.804 220.033 105.117 220.898 107.236C221.807 109.355 223.061 111.215 224.661 112.815C226.261 114.372 228.121 115.583 230.24 116.448C232.402 117.313 234.759 117.745 237.311 117.745ZM288.743 88.2941C291.554 88.2941 294.019 88.8346 296.138 89.9158C298.301 90.997 299.987 92.6404 301.198 94.846C302.409 97.0516 303.015 99.8411 303.015 103.214V123H296.787V103.928C296.787 100.598 295.965 98.0896 294.322 96.4029C292.722 94.7163 290.451 93.873 287.511 93.873C285.305 93.873 283.381 94.3054 281.737 95.1704C280.094 96.0353 278.818 97.3111 277.91 98.9978C277.045 100.684 276.612 102.782 276.612 105.29V123H270.385V88.6184H276.353V97.895L275.38 95.4299C276.504 93.181 278.234 91.4295 280.569 90.1753C282.905 88.9211 285.629 88.2941 288.743 88.2941ZM314.54 123V74.8658H320.768V123H314.54ZM334.15 135.974C332.507 135.974 330.907 135.693 329.35 135.131C327.793 134.612 326.452 133.833 325.328 132.796L327.988 128.125C328.853 128.947 329.804 129.574 330.842 130.006C331.88 130.439 332.983 130.655 334.15 130.655C335.664 130.655 336.918 130.266 337.913 129.487C338.908 128.709 339.837 127.325 340.702 125.335L342.843 120.6L343.492 119.821L356.985 88.6184H363.083L346.411 126.438C345.416 128.86 344.292 130.763 343.038 132.147C341.827 133.531 340.486 134.504 339.016 135.066C337.545 135.671 335.923 135.974 334.15 135.974ZM342.324 124.103L326.625 88.6184H333.112L346.476 119.237L342.324 124.103Z" fill="#491E82"/>
<path d="M369.803 123V77.5903H375.122L395.492 111.907H392.638L412.748 77.5903H418.067L418.132 123H411.904L411.839 87.3859H413.331L395.427 117.486H392.443L374.409 87.3859H376.031V123H369.803ZM446.161 123.389C442.485 123.389 439.242 122.632 436.43 121.119C433.663 119.605 431.5 117.529 429.943 114.891C428.43 112.253 427.673 109.226 427.673 105.809C427.673 102.393 428.408 99.3654 429.879 96.7273C431.392 94.0892 433.446 92.0349 436.041 90.5645C438.679 89.0509 441.642 88.2941 444.929 88.2941C448.259 88.2941 451.199 89.0293 453.751 90.4997C456.303 91.9701 458.292 94.0459 459.719 96.7273C461.19 99.3654 461.925 102.458 461.925 106.004C461.925 106.263 461.903 106.566 461.86 106.912C461.86 107.258 461.838 107.582 461.795 107.885H432.538V103.409H458.551L456.021 104.966C456.065 102.76 455.611 100.793 454.659 99.0626C453.708 97.3327 452.389 95.9921 450.702 95.0406C449.059 94.0459 447.134 93.5486 444.929 93.5486C442.766 93.5486 440.842 94.0459 439.155 95.0406C437.468 95.9921 436.149 97.3544 435.198 99.1275C434.246 100.857 433.771 102.847 433.771 105.096V106.134C433.771 108.426 434.29 110.48 435.328 112.296C436.409 114.069 437.901 115.453 439.804 116.448C441.707 117.443 443.891 117.94 446.356 117.94C448.388 117.94 450.226 117.594 451.87 116.902C453.556 116.21 455.027 115.172 456.281 113.788L459.719 117.81C458.162 119.627 456.216 121.011 453.881 121.962C451.589 122.914 449.015 123.389 446.161 123.389ZM480.433 123.389C477.578 123.389 474.854 123 472.259 122.222C469.707 121.443 467.696 120.492 466.226 119.367L468.821 114.437C470.291 115.432 472.108 116.275 474.27 116.967C476.432 117.659 478.638 118.005 480.887 118.005C483.784 118.005 485.86 117.594 487.114 116.772C488.412 115.951 489.061 114.805 489.061 113.334C489.061 112.253 488.671 111.41 487.893 110.804C487.114 110.199 486.077 109.745 484.779 109.442C483.525 109.139 482.119 108.88 480.562 108.664C479.006 108.404 477.449 108.101 475.892 107.755C474.335 107.366 472.908 106.847 471.61 106.198C470.313 105.506 469.275 104.577 468.496 103.409C467.718 102.198 467.329 100.598 467.329 98.6085C467.329 96.5327 467.913 94.7163 469.08 93.1594C470.248 91.6025 471.891 90.4132 474.011 89.5915C476.173 88.7265 478.724 88.2941 481.665 88.2941C483.914 88.2941 486.185 88.5752 488.477 89.1374C490.812 89.6563 492.715 90.4132 494.185 91.4079L491.526 96.338C489.969 95.3001 488.347 94.5865 486.66 94.1973C484.974 93.8081 483.287 93.6135 481.6 93.6135C478.876 93.6135 476.843 94.0676 475.503 94.9758C474.162 95.8407 473.492 96.9651 473.492 98.349C473.492 99.5167 473.881 100.425 474.659 101.074C475.481 101.679 476.519 102.155 477.773 102.501C479.07 102.847 480.498 103.149 482.055 103.409C483.611 103.625 485.168 103.928 486.725 104.317C488.282 104.663 489.688 105.16 490.942 105.809C492.239 106.458 493.277 107.366 494.056 108.534C494.877 109.701 495.288 111.258 495.288 113.204C495.288 115.28 494.683 117.075 493.472 118.589C492.261 120.102 490.553 121.292 488.347 122.157C486.141 122.978 483.503 123.389 480.433 123.389ZM512.932 123.389C510.077 123.389 507.353 123 504.758 122.222C502.206 121.443 500.195 120.492 498.725 119.367L501.32 114.437C502.79 115.432 504.606 116.275 506.769 116.967C508.931 117.659 511.137 118.005 513.386 118.005C516.283 118.005 518.359 117.594 519.613 116.772C520.911 115.951 521.559 114.805 521.559 113.334C521.559 112.253 521.17 111.41 520.392 110.804C519.613 110.199 518.575 109.745 517.278 109.442C516.024 109.139 514.618 108.88 513.061 108.664C511.504 108.404 509.947 108.101 508.391 107.755C506.834 107.366 505.407 106.847 504.109 106.198C502.812 105.506 501.774 104.577 500.995 103.409C500.217 102.198 499.828 100.598 499.828 98.6085C499.828 96.5327 500.411 94.7163 501.579 93.1594C502.747 91.6025 504.39 90.4132 506.509 89.5915C508.672 88.7265 511.223 88.2941 514.164 88.2941C516.413 88.2941 518.683 88.5752 520.976 89.1374C523.311 89.6563 525.214 90.4132 526.684 91.4079L524.024 96.338C522.468 95.3001 520.846 94.5865 519.159 94.1973C517.473 93.8081 515.786 93.6135 514.099 93.6135C511.375 93.6135 509.342 94.0676 508.001 94.9758C506.661 95.8407 505.99 96.9651 505.99 98.349C505.99 99.5167 506.38 100.425 507.158 101.074C507.98 101.679 509.018 102.155 510.272 102.501C511.569 102.847 512.996 103.149 514.553 103.409C516.11 103.625 517.667 103.928 519.224 104.317C520.781 104.663 522.186 105.16 523.441 105.809C524.738 106.458 525.776 107.366 526.554 108.534C527.376 109.701 527.787 111.258 527.787 113.204C527.787 115.28 527.182 117.075 525.971 118.589C524.76 120.102 523.051 121.292 520.846 122.157C518.64 122.978 516.002 123.389 512.932 123.389ZM556.913 123V115.734L556.588 114.372V101.982C556.588 99.3437 555.81 97.3111 554.253 95.884C552.739 94.4135 550.447 93.6783 547.376 93.6783C545.344 93.6783 543.354 94.0243 541.408 94.7163C539.462 95.365 537.819 96.2516 536.478 97.376L533.883 92.7053C535.656 91.2781 537.776 90.1969 540.241 89.4617C542.749 88.6833 545.365 88.2941 548.09 88.2941C552.804 88.2941 556.437 89.4401 558.988 91.7322C561.54 94.0243 562.816 97.5273 562.816 102.241V123H556.913ZM545.625 123.389C543.073 123.389 540.825 122.957 538.878 122.092C536.976 121.227 535.505 120.038 534.467 118.524C533.429 116.967 532.91 115.215 532.91 113.269C532.91 111.41 533.343 109.723 534.208 108.209C535.116 106.696 536.565 105.485 538.554 104.577C540.587 103.668 543.311 103.214 546.728 103.214H557.626V107.69H546.987C543.873 107.69 541.776 108.209 540.695 109.247C539.614 110.285 539.073 111.539 539.073 113.01C539.073 114.697 539.743 116.059 541.084 117.097C542.425 118.091 544.284 118.589 546.663 118.589C548.998 118.589 551.031 118.07 552.761 117.032C554.534 115.994 555.81 114.48 556.588 112.491L557.821 116.772C556.999 118.805 555.55 120.427 553.474 121.638C551.398 122.805 548.782 123.389 545.625 123.389ZM589.391 135.974C586.233 135.974 583.163 135.52 580.179 134.612C577.238 133.747 574.838 132.493 572.978 130.849L575.962 126.049C577.562 127.433 579.53 128.514 581.866 129.292C584.201 130.114 586.644 130.525 589.196 130.525C593.261 130.525 596.245 129.574 598.148 127.671C600.051 125.768 601.002 122.87 601.002 118.978V111.712L601.651 104.901L601.327 98.0247V88.6184H607.23V118.329C607.23 124.384 605.716 128.838 602.689 131.693C599.662 134.547 595.229 135.974 589.391 135.974ZM588.612 121.573C585.282 121.573 582.298 120.881 579.66 119.497C577.065 118.07 574.989 116.102 573.432 113.594C571.919 111.085 571.162 108.188 571.162 104.901C571.162 101.571 571.919 98.6734 573.432 96.2083C574.989 93.7 577.065 91.7538 579.66 90.3699C582.298 88.986 585.282 88.2941 588.612 88.2941C591.553 88.2941 594.234 88.8995 596.656 90.1104C599.078 91.2781 601.002 93.0945 602.43 95.5596C603.9 98.0247 604.635 101.138 604.635 104.901C604.635 108.62 603.9 111.712 602.43 114.178C601.002 116.643 599.078 118.502 596.656 119.756C594.234 120.967 591.553 121.573 588.612 121.573ZM589.326 116.124C591.618 116.124 593.65 115.648 595.424 114.697C597.197 113.745 598.581 112.426 599.575 110.739C600.613 109.053 601.132 107.107 601.132 104.901C601.132 102.695 600.613 100.749 599.575 99.0626C598.581 97.376 597.197 96.0786 595.424 95.1704C593.65 94.2189 591.618 93.7432 589.326 93.7432C587.034 93.7432 584.979 94.2189 583.163 95.1704C581.39 96.0786 579.984 97.376 578.946 99.0626C577.952 100.749 577.454 102.695 577.454 104.901C577.454 107.107 577.952 109.053 578.946 110.739C579.984 112.426 581.39 113.745 583.163 114.697C584.979 115.648 587.034 116.124 589.326 116.124ZM634.439 123.389C630.763 123.389 627.519 122.632 624.708 121.119C621.94 119.605 619.778 117.529 618.221 114.891C616.707 112.253 615.951 109.226 615.951 105.809C615.951 102.393 616.686 99.3654 618.156 96.7273C619.67 94.0892 621.724 92.0349 624.319 90.5645C626.957 89.0509 629.919 88.2941 633.206 88.2941C636.536 88.2941 639.477 89.0293 642.029 90.4997C644.58 91.9701 646.57 94.0459 647.997 96.7273C649.467 99.3654 650.202 102.458 650.202 106.004C650.202 106.263 650.181 106.566 650.138 106.912C650.138 107.258 650.116 107.582 650.073 107.885H620.816V103.409H646.829L644.299 104.966C644.342 102.76 643.888 100.793 642.937 99.0626C641.985 97.3327 640.666 95.9921 638.98 95.0406C637.336 94.0459 635.412 93.5486 633.206 93.5486C631.044 93.5486 629.119 94.0459 627.433 95.0406C625.746 95.9921 624.427 97.3544 623.476 99.1275C622.524 100.857 622.048 102.847 622.048 105.096V106.134C622.048 108.426 622.567 110.48 623.605 112.296C624.687 114.069 626.179 115.453 628.081 116.448C629.984 117.443 632.168 117.94 634.633 117.94C636.666 117.94 638.504 117.594 640.147 116.902C641.834 116.21 643.305 115.172 644.559 113.788L647.997 117.81C646.44 119.627 644.494 121.011 642.158 121.962C639.866 122.914 637.293 123.389 634.439 123.389Z" fill="white"/>
<path d="M125.502 98.7272C125.502 101.379 121.69 105.852 119.502 107.727C117.314 109.603 113.597 110.727 110.502 110.727H44.5023L20.5023 131.727V53.7272C20.5023 51.075 24.3144 46.6025 26.5023 44.7272C28.6902 42.8518 32.4081 41.7272 35.5023 41.7272H110.502C113.597 41.7272 117.314 42.8518 119.502 44.7272C121.69 46.6025 125.502 51.075 125.502 53.7272V98.7272Z" stroke="#491E82" stroke-width="6" stroke-linecap="round" stroke-linejoin="round"/>
<path d="M75.4977 126.272C75.4977 128.925 79.3098 133.397 81.4977 135.272C83.6856 137.148 87.4035 138.272 90.4977 138.272H156.498L180.498 159.272V81.2725C180.498 78.6203 176.686 74.1478 174.498 72.2725C172.31 70.3971 168.592 69.2725 165.498 69.2725H90.4977C87.4035 69.2725 83.6856 70.3971 81.4977 72.2725C79.3098 74.1478 75.4977 78.6203 75.4977 81.2725V126.272Z" stroke="#F8F8F8" stroke-width="6" stroke-linecap="round" stroke-linejoin="round"/>
<path d="M125.502 65.7272V74.7272" stroke="#491E82" stroke-width="6"/>
</svg>
